<svg id="avatar" xmlns="http://www.w3.org/2000/svg" xmlns:xlink="http://www.w3.org/1999/xlink" width="61" height="61" viewBox="0 0 61 61">
  <defs>
    <clipPath id="clip-path">
      <circle id="Эллипс_32" data-name="Эллипс 32" cx="30.5" cy="30.5" r="30.5" transform="translate(838 2944)" fill="#fff" stroke="#707070" stroke-width="1"/>
    </clipPath>
    <clipPath id="clip-path-2">
      <circle id="Ellipse_8" data-name="Ellipse 8" cx="27.983" cy="27.983" r="27.983" fill="#c7cfe0"/>
    </clipPath>
  </defs>
  <g id="Группа_масок_1" data-name="Группа масок 1" transform="translate(-838 -2944)" clip-path="url(#clip-path)">
    <g id="avatar-2" data-name="avatar" transform="translate(840.332 2946.332)">
      <g id="Ellipse_7" data-name="Ellipse 7" transform="translate(0 0)" fill="#c7cfe0" stroke="#c7cfe0" stroke-width="4.5">
        <circle cx="27.983" cy="27.983" r="27.983" stroke="none"/>
        <circle cx="27.983" cy="27.983" r="30.233" fill="none"/>
      </g>
      <g id="Mask_Group_3" data-name="Mask Group 3" transform="translate(0 0)" clip-path="url(#clip-path-2)">
        <g id="Group_210" data-name="Group 210" transform="translate(5.247 7.032)">
          <path id="Path_143" data-name="Path 143" d="M1521.219,715.515c2.592-.015,12.8.012,22.682.06s18.018.051,18.072,0-.028-.36-.193-.7h0c-.164-.342-.384-.816-.49-1.049a7.171,7.171,0,0,0-2.991-2.274,5.761,5.761,0,0,1-.933-.473,13.268,13.268,0,0,0-2.107-.866,11.321,11.321,0,0,1-1.874-.748,34.264,34.264,0,0,0-3.931-1.841,9.072,9.072,0,0,1-.959-.4,1.866,1.866,0,0,0-.714-.188.66.66,0,0,1-.717-.6,1.67,1.67,0,0,0-.292-.663,1.652,1.652,0,0,1-.292-1.1c0-.582-.041-.7-.3-.905a2.159,2.159,0,0,0-.527-.309c-.209-.066-.224-.2-.224-1.937a7.742,7.742,0,0,1,.108-1.865,4.583,4.583,0,0,0,.933-1.464,10.03,10.03,0,0,0,.48-1.678,3.7,3.7,0,0,1,.643-1.723,2.768,2.768,0,0,0,.457-.839,17.446,17.446,0,0,0,.283-4.314.725.725,0,0,0-.389-.084h-.305l.078-3.527c.074-3.316.064-3.573-.154-4.255a4.32,4.32,0,0,0-.958-1.79,13.727,13.727,0,0,1-1.436-1.263c-1.271-1.207-1.925-1.664-2.382-1.664a2.6,2.6,0,0,1-.743-.263c-.5-.245-.681-.262-2.642-.252a8.742,8.742,0,0,0-2.985.277,8.128,8.128,0,0,0-4.945,4.16c-.325.641-.485,2.449-.478,5.531l.006,2.956h-.262c-.5,0-.566.24-.484,1.873a5.987,5.987,0,0,0,.743,3.356,4.016,4.016,0,0,1,.582,1.789,3.873,3.873,0,0,0,1.091,2.575l.621.747-.028,1.358c-.04,1.938-.1,2.165-.6,2.235-.569.082-.851.571-1.153,1.99a10.6,10.6,0,0,1-.36,1.385,3.169,3.169,0,0,1-1.082.529c-.542.184-1.462.541-2.057.79a8,8,0,0,1-1.267.456c-.166,0-3.271,1.469-5.379,2.545a20.16,20.16,0,0,0-3.536,2.187,5.189,5.189,0,0,0-1.321,2.086C1516.5,715.516,1517.306,715.538,1521.219,715.515Z" transform="translate(-1516.51 -676.52)" fill="#fff"/>
          <rect id="Rectangle_27" data-name="Rectangle 27" width="44.306" height="13.991" transform="translate(0.584 38.44)" fill="#fff"/>
        </g>
      </g>
    </g>
  </g>
</svg>
