<svg id="icon-well-being" xmlns="http://www.w3.org/2000/svg" width="53.557" height="53.557" viewBox="0 0 53.557 53.557">
  <path id="Контур_121" data-name="Контур 121" d="M121.958,176.327l1.776-.176c-1.051-10.637-9.108-18.657-18.741-18.657v1.785c8.71,0,16,7.329,16.964,17.047Z" transform="translate(-103.209 -143.212)" fill="#7b6cd5"/>
  <path id="Контур_122" data-name="Контур 122" d="M430.031,157.5c-9.632,0-17.689,8.02-18.741,18.657l1.776.176c.961-9.718,8.254-17.047,16.964-17.047Z" transform="translate(-378.259 -143.218)" fill="#7b6cd5"/>
  <path id="Контур_123" data-name="Контур 123" d="M161.423,367.5c-11.831,0-21.423,7.993-21.423,17.852h42.845C182.845,375.492,173.254,367.5,161.423,367.5Zm-5.356,10.711a2.678,2.678,0,1,0-5.356,0h-1.785a4.463,4.463,0,0,1,8.926,0Zm16.067,0a2.678,2.678,0,1,0-5.356,0h-1.785a4.463,4.463,0,0,1,8.926,0Z" transform="translate(-134.644 -331.795)" fill="#7b6cd5"/>
  <path id="Контур_124" data-name="Контур 124" d="M512.856,17.5a5.355,5.355,0,1,0,3.787,1.568A5.357,5.357,0,0,0,512.856,17.5ZM511.2,20.4a1.34,1.34,0,0,1,1.339,1.339h-.893a.446.446,0,0,0-.893,0h-.893A1.34,1.34,0,0,1,511.2,20.4Zm1.785,5.356a2.233,2.233,0,0,1-2.232-2.232h.893a1.339,1.339,0,0,0,2.678,0h.893a2.234,2.234,0,0,1-2.231,2.232Zm2.231-4.017a.446.446,0,1,0-.893,0h-.893a1.339,1.339,0,1,1,2.678,0Z" transform="translate(-464.654 -17.5)" fill="#7b6cd5"/>
  <path id="Контур_125" data-name="Контур 125" d="M99.239,22.275a2.961,2.961,0,0,0,0-3.957,2.454,2.454,0,0,0-3.66,0L93.749,20.3l-1.83-1.979a2.454,2.454,0,0,0-3.66,0,2.961,2.961,0,0,0,0,3.957l5.49,5.935Z" transform="translate(-87.5 -17.499)" fill="#7b6cd5"/>
  <path id="Контур_126" data-name="Контур 126" d="M268.748,181.424H274.1l.875-5.208,5.374-8.538-2.191-1.428-4.733,7.521h0a2.843,2.843,0,0,0-.264-.143,2.678,2.678,0,1,0-3.476,0,2.844,2.844,0,0,0-.264.143l-4.734-7.521-2.191,1.428,5.374,8.538Z" transform="translate(-244.648 -151.075)" fill="#7b6cd5"/>
  <path id="Контур_127" data-name="Контур 127" d="M568.33,314.894l1.785-.028.028,1.785-1.785.028Z" transform="translate(-519.279 -284.531)" fill="#7b6cd5"/>
  <path id="Контур_128" data-name="Контур 128" d="M568.89,349.887l1.785-.029.029,1.785-1.785.029Z" transform="translate(-519.782 -315.954)" fill="#7b6cd5"/>
  <path id="Контур_129" data-name="Контур 129" d="M586.11,332.1l1.785-.028.028,1.785-1.785.028Z" transform="translate(-535.245 -299.986)" fill="#7b6cd5"/>
  <path id="Контур_130" data-name="Контур 130" d="M551.11,332.674l1.785-.028.028,1.785-1.785.028Z" transform="translate(-503.816 -300.497)" fill="#7b6cd5"/>
  <path id="Контур_131" data-name="Контур 131" d="M113.33,279.894l1.785-.028.028,1.785-1.785.028Z" transform="translate(-110.695 -253.102)" fill="#7b6cd5"/>
  <path id="Контур_132" data-name="Контур 132" d="M113.89,314.887l1.785-.029.029,1.785-1.785.029Z" transform="translate(-111.198 -284.524)" fill="#7b6cd5"/>
  <path id="Контур_133" data-name="Контур 133" d="M131.11,297.107l1.785-.029.029,1.785-1.785.029Z" transform="translate(-126.661 -268.558)" fill="#7b6cd5"/>
  <path id="Контур_134" data-name="Контур 134" d="M96.113,297.674l1.785-.028.028,1.785-1.785.028Z" transform="translate(-95.234 -269.068)" fill="#7b6cd5"/>
  <path id="Контур_135" data-name="Контур 135" d="M285.865,68.272c-1.857-2.263-2.587-4.274-2.205-6.32a11.156,11.156,0,0,0-3.662-.7c.191,4.651,1.924,6.526,5.867,7.025Z" transform="translate(-260.361 -56.784)" fill="#7b6cd5"/>
  <path id="Контур_136" data-name="Контур 136" d="M326.428,26.25c-3.687,4-3.452,6.88,0,10.711C330.115,32.959,329.879,30.082,326.428,26.25Z" transform="translate(-299.649 -25.357)" fill="#7b6cd5"/>
  <path id="Контур_137" data-name="Контур 137" d="M368.393,61.25a10.7,10.7,0,0,0-3.677.693c.415,2.081-.308,4.1-2.186,6.342C366.671,67.784,368.162,65.674,368.393,61.25Z" transform="translate(-334.474 -56.787)" fill="#7b6cd5"/>
</svg>
