<svg id="icon-protection" xmlns="http://www.w3.org/2000/svg" width="53.908" height="53.905" viewBox="0 0 53.908 53.905">
  <path id="Контур_77" data-name="Контур 77" d="M117.381,14.442a11.065,11.065,0,0,0-9.962-9.553A9.631,9.631,0,0,0,99.036,0H94.858a9.631,9.631,0,0,0-8.384,4.887,11.065,11.065,0,0,0-9.962,9.553,15.266,15.266,0,0,0,0,25.024,11.065,11.065,0,0,0,9.962,9.553,9.631,9.631,0,0,0,8.384,4.887h4.177a9.631,9.631,0,0,0,8.384-4.887,11.065,11.065,0,0,0,9.962-9.553,15.266,15.266,0,0,0,0-25.024Zm-6.221,7.113a23.947,23.947,0,0,1-13.526,21.56,1.58,1.58,0,0,1-1.375,0,23.947,23.947,0,0,1-13.526-21.56V17.9a1.58,1.58,0,0,1,1.761-1.569c6.336.737,11.184-5.061,11.233-5.12h0a1.579,1.579,0,0,1,2.437,0c.081.1,4.956,5.85,11.234,5.122a1.579,1.579,0,0,1,1.761,1.566Z" transform="translate(-69.993 -0.001)" fill="#7b6cd5"/>
  <path id="Контур_78" data-name="Контур 78" d="M235.16,155.654v2a20.92,20.92,0,0,0,11.055,18.369,20.921,20.921,0,0,0,11.054-18.369v-2c-5.133-.105-9.142-3.227-11.054-5.054C244.3,152.423,240.291,155.548,235.16,155.654Zm17.372,2.543a1.579,1.579,0,0,1,.122,2.228l-6.619,7.37a1.579,1.579,0,0,1-2.347,0l-3.909-4.354a1.579,1.579,0,0,1,2.35-2.106l2.737,3.045,5.438-6.061a1.579,1.579,0,0,1,2.228-.122Z" transform="translate(-219.261 -136.103)" fill="#7b6cd5"/>
</svg>
