<svg id="icon-blood-pressure" xmlns="http://www.w3.org/2000/svg" width="72.493" height="53.905" viewBox="0 0 72.493 53.905">
  <path id="Контур_33" data-name="Контур 33" d="M150.285,234.276l-5.056-7.51-9.268,20.5a2.943,2.943,0,0,1-2.662,1.853h-.009a2.936,2.936,0,0,1-2.664-1.842l-6.559-14.292-3.924,7.269a4.558,4.558,0,0,1-3.863,2.3h-4.518c4.372,7.149,12.272,13.834,25.124,18.27a60.475,60.475,0,0,0,12.154-5.675,18.18,18.18,0,0,1,1.244-20.874Z" transform="translate(-107.321 -206.92)" fill="#7b6cd5"/>
  <path id="Контур_34" data-name="Контур 34" d="M127.108,79.174c-12.8-4.576-19.057,7-19.057,7s-6.257-11.576-19.057-7c-8.094,2.89-13.726,16.469-8.463,29.787h6.685l5.523-10.228a2.9,2.9,0,0,1,5.335.175l6.368,13.878,8.871-19.62a2.976,2.976,0,0,1,5.312-.449l6.313,9.379a18.172,18.172,0,0,1,10.817-3.57q.941,0,1.86.093c.089-9.368-4.539-17.31-10.509-19.444Z" transform="translate(-78.485 -78.104)" fill="#7b6cd5"/>
  <path id="Контур_35" data-name="Контур 35" d="M408.7,253.88A15.22,15.22,0,1,0,423.923,269.1,15.22,15.22,0,0,0,408.7,253.88Zm-1.078,2.888a1.079,1.079,0,1,1,2.159,0v2.664a1.079,1.079,0,1,1-2.159,0Zm-8.588,13.41h-2.664a1.079,1.079,0,1,1,0-2.159h2.664a1.079,1.079,0,1,1,0,2.159Zm10.747,11.252a1.08,1.08,0,1,1-2.161,0v-2.666a1.08,1.08,0,1,1,2.161,0Zm6.42-4.832a1.406,1.406,0,0,1-2.071.064l-3.819-3.541a4.247,4.247,0,0,1-1.611.32,4.362,4.362,0,1,1,4.024-2.73l3.539,3.819a1.4,1.4,0,0,1-.062,2.068Zm4.832-6.422h-2.666a1.078,1.078,0,1,1,0-2.157h2.666a1.078,1.078,0,1,1,0,2.157Z" transform="translate(-351.429 -230.415)" fill="#7b6cd5"/>
</svg>
