<svg id="icon-place" xmlns="http://www.w3.org/2000/svg" width="34.541" height="34.541" viewBox="0 0 34.541 34.541">
  <path id="Контур_143" data-name="Контур 143" d="M235.244,28a8.443,8.443,0,0,0-8.443,8.443c0,7.035,5.63,11.257,8.443,16.887,2.813-5.63,8.443-9.852,8.443-16.887A8.443,8.443,0,0,0,235.244,28Zm0,12.439A4.222,4.222,0,1,1,238.23,39.2,4.222,4.222,0,0,1,235.244,40.439Z" transform="translate(-217.974 -28)" fill="#fff"/>
  <path id="Контур_144" data-name="Контур 144" d="M306.512,427.543c0,.95-1.546,1.72-3.454,1.72s-3.454-.77-3.454-1.72,1.546-1.719,3.454-1.719,3.454.77,3.454,1.719" transform="translate(-285.788 -398.56)" fill="#fff"/>
  <path id="Контур_145" data-name="Контур 145" d="M118.582,371.17c-.414.618-.8,1.236-1.151,1.865,8.554.33,13.2,2.456,13.2,3.6,0,1.236-5.419,3.638-15.352,3.638s-15.352-2.4-15.352-3.638c0-1.151,4.644-3.285,13.206-3.6-.357-.629-.744-1.247-1.151-1.865-7.38.426-13.973,2.287-13.973,5.465,0,3.638,8.689,5.557,17.27,5.557s17.27-1.919,17.27-5.557c0-3.178-6.593-5.039-13.966-5.465Z" transform="translate(-98.008 -347.651)" fill="#fff"/>
</svg>
