<svg id="noun-hearing-5149541" xmlns="http://www.w3.org/2000/svg" width="54.569" height="54.57" viewBox="0 0 54.569 54.57">
  <path id="Контур_36" data-name="Контур 36" d="M286.646-.006A17.617,17.617,0,0,0,269.06,17.58v7.994h4.8a1.6,1.6,0,0,1,0,3.2h-4.8v14.6a11.191,11.191,0,0,0,22.382,0V40.793a9.857,9.857,0,0,1,4.6-8.345,17.59,17.59,0,0,0-9.4-32.455Zm9.592,19.185a1.6,1.6,0,0,1-1.6-1.6,8,8,0,0,0-15.064-3.743,6.857,6.857,0,0,1,.788-.436,8,8,0,0,1,11.079,7.377,1.6,1.6,0,1,1-3.2,0,4.8,4.8,0,0,0-4.8-4.8,4.746,4.746,0,0,0-1.848.368,3.76,3.76,0,0,0-1.74,5.46.021.021,0,0,1,0,.005,13.011,13.011,0,0,1,1.987,6.913A11.155,11.155,0,0,1,279,35.767a1.6,1.6,0,1,0,2.848,1,1.6,1.6,0,1,1,3.2,0,4.8,4.8,0,1,1-8.537-3,8.138,8.138,0,0,0,2.142-5.023,9.842,9.842,0,0,0-1.5-5.237,11.192,11.192,0,1,1,20.687-5.925,1.6,1.6,0,0,1-1.6,1.6Z" transform="translate(-249.663 0.007)" fill="#7b6cd5"/>
  <path id="Контур_37" data-name="Контур 37" d="M85.6,203.2l-2.75-5.5a1.619,1.619,0,0,0-1.6-.9,1.725,1.725,0,0,0-1.407,1.215l-2.142,8.6L76.452,204.1a1.637,1.637,0,0,0-1.439-.9H71.6a1.6,1.6,0,1,0,0,3.2h2.419l2.75,5.5a1.656,1.656,0,0,0,1.6.9,1.725,1.725,0,0,0,1.407-1.215l2.142-8.6,1.247,2.526a1.637,1.637,0,0,0,1.439.9h4.8v-3.2Z" transform="translate(-70.004 -177.62)" fill="#7b6cd5"/>
  <path id="Контур_38" data-name="Контур 38" d="M173.353,366.858l3.2-3.2a1.6,1.6,0,0,0-2.261-2.261l-3.2,3.2a1.6,1.6,0,1,0,2.261,2.261Z" transform="translate(-160.818 -325.759)" fill="#7b6cd5"/>
  <path id="Контур_39" data-name="Контур 39" d="M171.091,98.911a1.6,1.6,0,0,0,0,2.261l3.2,3.2a1.6,1.6,0,1,0,2.261-2.261l-3.2-3.2A1.6,1.6,0,0,0,171.091,98.911Z" transform="translate(-160.818 -88.849)" fill="#7b6cd5"/>
</svg>
