<svg xmlns="http://www.w3.org/2000/svg" width="212.592" height="57.04" viewBox="0 0 212.592 57.04">
  <g id="Сгруппировать_58" data-name="Сгруппировать 58" transform="translate(815.287 119)">
    <g id="logo" transform="translate(-815.287 -119)">
      <path id="Контур_138" data-name="Контур 138" d="M43.173,168.089c-5.81,0-10.328,2.676-14.927,5.761q-.836-.683-1.678-1.416c-7.42-6.458-11.85-12.969-11.85-17.415a4.86,4.86,0,0,1,9.611-1.025,1.815,1.815,0,0,0,3.549,0,4.86,4.86,0,0,1,9.61,1.025c0,6.772-8.23,12.6-9.881,13.7a1.815,1.815,0,0,0,2.013,3.02c2.7-1.8,11.5-8.319,11.5-16.722A8.482,8.482,0,0,0,26.1,149.6a8.483,8.483,0,0,0-15.017,5.417c0,7.9,9.159,16.726,13.1,20.153q.456.4.934.8l-.147.1-.837.569c-.77-.671-1.5-1.323-2.2-1.949-4.116-3.689-7.367-6.6-12.116-6.6-5.507,0-9.823,3.895-9.823,8.865s4.316,8.864,9.826,8.864,10.154-2.187,14.041-4.651c1.24,1.015,2.6,2.062,4.114,3.123a1.815,1.815,0,0,0,2.08-2.975c-1.084-.757-2.087-1.512-3.025-2.256q.445-.3.886-.6l.174-.119c5.3,4,11.391,7.48,15.078,7.48,5.509,0,9.826-3.893,9.826-8.864s-4.315-8.864-9.826-8.864Zm-33.347,14.1c-3.532,0-6.2-2.251-6.2-5.234s2.664-5.234,6.2-5.234,5.88,2.258,9.694,5.675c.47.422.952.854,1.451,1.295a21.111,21.111,0,0,1-11.145,3.5Zm33.349,0c-2.052,0-6.666-2.181-11.895-5.994,3.867-2.534,7.5-4.475,11.895-4.475,3.531,0,6.2,2.25,6.2,5.234S46.706,182.188,43.174,182.188Z" transform="translate(0 -128.779)" fill="#fff"/>
      <path id="Контур_139" data-name="Контур 139" d="M151.461,17.9a8.951,8.951,0,1,0-8.951-8.951A8.962,8.962,0,0,0,151.461,17.9Zm0-14.273a5.322,5.322,0,1,1-5.322,5.322A5.328,5.328,0,0,1,151.461,3.629Z" transform="translate(-125.246)" fill="#fff"/>
    </g>
    <path id="Контур_152" data-name="Контур 152" d="M3.06,45V13.5H15.7q4.905,0,7.493,2.272A7.405,7.405,0,0,1,25.785,21.6a6.836,6.836,0,0,1-1.6,4.747A7.968,7.968,0,0,1,20.3,28.755a7.51,7.51,0,0,1,4.455,2.677A7.6,7.6,0,0,1,26.5,36.4a7.932,7.932,0,0,1-2.7,6.165Q21.105,45,16.155,45ZM8.82,26.73h6.03A5.556,5.556,0,0,0,18.585,25.6,3.99,3.99,0,0,0,19.89,22.41a3.984,3.984,0,0,0-1.282-3.128,5.616,5.616,0,0,0-3.847-1.147H8.82Zm0,13.59h6.435a6.01,6.01,0,0,0,3.983-1.193,4.14,4.14,0,0,0,1.417-3.352A4.3,4.3,0,0,0,19.17,32.31a5.988,5.988,0,0,0-4-1.26H8.82ZM43.6,45.54a13.98,13.98,0,0,1-6.255-1.373,10.39,10.39,0,0,1-4.432-4.162,13.757,13.757,0,0,1-1.642-7.065V13.5h5.76V32.985q0,3.69,1.778,5.49a6.612,6.612,0,0,0,4.927,1.8,6.628,6.628,0,0,0,4.905-1.8q1.8-1.8,1.8-5.49V13.5h5.76V32.94a13.322,13.322,0,0,1-1.71,7.065,10.715,10.715,0,0,1-4.567,4.162A14.412,14.412,0,0,1,43.6,45.54ZM62.1,45V13.5h5.76L82.665,35.685V13.5h5.76V45h-5.76L67.86,22.86V45Zm39.78,0V18.135H92.7V13.5h24.165v4.635H107.64V45Zm13.9,0,11.52-31.5h6.48L145.3,45h-6.12l-2.52-7.29H124.38L121.815,45Zm10.17-11.79h9.135L130.5,20.115Z" transform="translate(-748 -120)" fill="#fff"/>
  </g>
</svg>
