<svg id="logo_Jogosfera" xmlns="http://www.w3.org/2000/svg" width="230.76" height="57.04" viewBox="0 0 230.76 57.04">
  <path id="Контур_150" data-name="Контур 150" d="M13.916,22H10.479l-1-3.115H4.5L3.516,22H.1L5.2,8h3.74ZM8.76,16.463l-1.5-4.707a6.134,6.134,0,0,1-.234-1.26H6.943A5.341,5.341,0,0,1,6.7,11.717L5.176,16.463ZM27.3,22H23.32l-4.082-6.084a5.832,5.832,0,0,1-.371-.771h-.049V22H15.664V8h3.154v6.621h.049q.117-.273.391-.781L23.125,8h3.76L22,14.676Zm13.652,0H37.52l-1-3.115h-4.98L30.557,22H27.139l5.1-14h3.74ZM35.8,16.463l-1.5-4.707a6.134,6.134,0,0,1-.234-1.26h-.078a5.341,5.341,0,0,1-.244,1.221l-1.523,4.746ZM42.705,22V8h4.961q7.461,0,7.461,6.826a6.9,6.9,0,0,1-2.036,5.225A7.508,7.508,0,0,1,47.666,22Zm3.154-11.436v8.877h1.563a4.222,4.222,0,0,0,3.218-1.23,4.669,4.669,0,0,0,1.167-3.35,4.235,4.235,0,0,0-1.157-3.149A4.412,4.412,0,0,0,47.4,10.564ZM65.85,22h-8.4V8h8.076v2.568H60.605V13.68h4.58v2.559h-4.58v3.2H65.85Zm18.2,0H80.938V13.621q0-1.357.117-3h-.078a14.751,14.751,0,0,1-.439,1.855L77.256,22H74.678l-3.34-9.424a18.337,18.337,0,0,1-.439-1.953h-.088q.127,2.07.127,3.633V22H68.1V8h4.619l2.861,8.3a11.687,11.687,0,0,1,.5,2h.059a20.158,20.158,0,0,1,.557-2.021L79.551,8h4.5Zm6.338,0H87.236V8h3.154Zm15.5,0h-3.437l-1-3.115h-4.98L95.488,22H92.07l5.1-14h3.74Zm-5.156-5.537-1.5-4.707a6.134,6.134,0,0,1-.234-1.26h-.078a5.341,5.341,0,0,1-.244,1.221l-1.523,4.746Zm18.262-.02a6.359,6.359,0,0,1-1.3,4.307,4.74,4.74,0,0,1-3.774,1.494,5.372,5.372,0,0,1-2.041-.381V18.9a2.93,2.93,0,0,0,1.816.615q2.158,0,2.158-3.2V8h3.145Zm8.984,5.8a6.519,6.519,0,0,1-4.9-1.958,7.029,7.029,0,0,1-1.895-5.1,7.532,7.532,0,0,1,1.924-5.371,6.661,6.661,0,0,1,5.1-2.051,6.356,6.356,0,0,1,4.849,1.963A7.237,7.237,0,0,1,134.9,14.9a7.412,7.412,0,0,1-1.919,5.322A6.586,6.586,0,0,1,127.979,22.244Zm.137-11.768a3.175,3.175,0,0,0-2.637,1.245,5.191,5.191,0,0,0-.977,3.3,5.1,5.1,0,0,0,.977,3.291,3.37,3.37,0,0,0,5.146.034,5.04,5.04,0,0,0,.957-3.267,5.462,5.462,0,0,0-.928-3.389A3.025,3.025,0,0,0,128.115,10.477Zm20.605,10.586a10.078,10.078,0,0,1-5.1,1.182,7.372,7.372,0,0,1-5.327-1.87,6.8,6.8,0,0,1-1.948-5.151,7.192,7.192,0,0,1,2.129-5.381,7.756,7.756,0,0,1,5.664-2.08,11.5,11.5,0,0,1,3.926.615v2.959A7.8,7.8,0,0,0,144.1,10.4a4.257,4.257,0,0,0-3.2,1.274,4.682,4.682,0,0,0-1.235,3.4,4.7,4.7,0,0,0,1.108,3.34A3.907,3.907,0,0,0,143.77,19.6a4.166,4.166,0,0,0,1.8-.322V16.541h-2.8v-2.52h5.957ZM154.6,22h-3.154V8H154.6ZM10.418,46.221A8.9,8.9,0,0,1,8.593,52.25a6.636,6.636,0,0,1-5.284,2.092,7.521,7.521,0,0,1-2.857-.533V49.666a4.1,4.1,0,0,0,2.543.861q3.021,0,3.021-4.484V34.395h4.4ZM23,54.342A9.126,9.126,0,0,1,16.133,51.6a9.841,9.841,0,0,1-2.652-7.144,10.546,10.546,0,0,1,2.693-7.52,9.325,9.325,0,0,1,7.137-2.871A8.9,8.9,0,0,1,30.1,36.814a10.132,10.132,0,0,1,2.591,7.246A10.377,10.377,0,0,1,30,51.512,9.221,9.221,0,0,1,23,54.342Zm.191-16.475A4.445,4.445,0,0,0,19.5,39.61a7.268,7.268,0,0,0-1.367,4.614A7.134,7.134,0,0,0,19.5,48.832a4.381,4.381,0,0,0,3.582,1.7A4.425,4.425,0,0,0,26.7,48.88a7.056,7.056,0,0,0,1.34-4.573,7.646,7.646,0,0,0-1.3-4.744A4.235,4.235,0,0,0,23.188,37.867Zm28.848,14.82A14.109,14.109,0,0,1,44.9,54.342a10.321,10.321,0,0,1-7.458-2.618,9.525,9.525,0,0,1-2.728-7.212,10.068,10.068,0,0,1,2.98-7.533,10.859,10.859,0,0,1,7.93-2.912,16.107,16.107,0,0,1,5.5.861V39.07a10.924,10.924,0,0,0-5.551-1.312,5.959,5.959,0,0,0-4.478,1.784,6.554,6.554,0,0,0-1.729,4.765,6.574,6.574,0,0,0,1.552,4.676,5.47,5.47,0,0,0,4.19,1.654,5.833,5.833,0,0,0,2.516-.451V46.357H43.7V42.83h8.34Zm12.1,1.654A9.126,9.126,0,0,1,57.271,51.6a9.841,9.841,0,0,1-2.652-7.144,10.545,10.545,0,0,1,2.693-7.52,9.325,9.325,0,0,1,7.137-2.871,8.9,8.9,0,0,1,6.788,2.748,10.132,10.132,0,0,1,2.591,7.246,10.377,10.377,0,0,1-2.687,7.451A9.221,9.221,0,0,1,64.135,54.342Zm.191-16.475a4.445,4.445,0,0,0-3.691,1.743,7.268,7.268,0,0,0-1.367,4.614,7.134,7.134,0,0,0,1.367,4.607,4.718,4.718,0,0,0,7.205.048,7.056,7.056,0,0,0,1.34-4.573,7.646,7.646,0,0,0-1.3-4.744A4.235,4.235,0,0,0,64.326,37.867ZM76.18,53.248V48.873a8.407,8.407,0,0,0,2.584,1.5,8.306,8.306,0,0,0,2.816.5,6.246,6.246,0,0,0,1.456-.15,3.411,3.411,0,0,0,1.039-.417,1.819,1.819,0,0,0,.622-.629,1.569,1.569,0,0,0,.205-.786,1.7,1.7,0,0,0-.328-1.025,3.531,3.531,0,0,0-.9-.834,9.357,9.357,0,0,0-1.347-.738q-.779-.355-1.682-.725a8.583,8.583,0,0,1-3.425-2.338A5.1,5.1,0,0,1,76.1,39.891a5.313,5.313,0,0,1,.615-2.632,5.225,5.225,0,0,1,1.675-1.812A7.51,7.51,0,0,1,80.842,34.4a12.61,12.61,0,0,1,2.953-.335,17.762,17.762,0,0,1,2.714.185,10.673,10.673,0,0,1,2.181.567v4.088a6.594,6.594,0,0,0-1.073-.6,8.5,8.5,0,0,0-1.2-.431,9.124,9.124,0,0,0-1.224-.253,8.66,8.66,0,0,0-1.155-.082,6.025,6.025,0,0,0-1.367.144,3.507,3.507,0,0,0-1.039.4,2.007,2.007,0,0,0-.656.622,1.474,1.474,0,0,0-.232.813,1.554,1.554,0,0,0,.26.882,2.98,2.98,0,0,0,.738.738,7.835,7.835,0,0,0,1.162.684q.684.335,1.545.69a17.215,17.215,0,0,1,2.112,1.046,7.509,7.509,0,0,1,1.606,1.251A4.873,4.873,0,0,1,89.2,46.405a6.36,6.36,0,0,1-.267,4.84,5.05,5.05,0,0,1-1.688,1.8,7.322,7.322,0,0,1-2.481.991,14.341,14.341,0,0,1-2.987.3,16.611,16.611,0,0,1-3.069-.273A9.266,9.266,0,0,1,76.18,53.248ZM104.111,37.99H97.193V42.8h6.357v3.582H97.193V54H92.777V34.395h11.334ZM119.1,54H107.338V34.395h11.307v3.6h-6.891v4.361h6.412v3.582h-6.412v4.484H119.1Zm19.592,0h-5.072l-3.049-5.045q-.342-.574-.656-1.025a5.7,5.7,0,0,0-.636-.772,2.528,2.528,0,0,0-.67-.492,1.7,1.7,0,0,0-.759-.171h-1.189V54H122.24V34.395h7q7.137,0,7.137,5.332a5.521,5.521,0,0,1-.314,1.894,5.26,5.26,0,0,1-.889,1.565,5.633,5.633,0,0,1-1.388,1.2,7.157,7.157,0,0,1-1.812.793v.055a2.81,2.81,0,0,1,.848.444,6.07,6.07,0,0,1,.793.718,10.015,10.015,0,0,1,.731.882q.349.472.636.923ZM126.656,37.7v5.455h1.914a3.173,3.173,0,0,0,2.283-.82,2.738,2.738,0,0,0,.875-2.064q0-2.57-3.076-2.57ZM157.76,54h-4.812l-1.395-4.361H144.58L143.2,54h-4.785l7.137-19.605h5.236Zm-7.219-7.752-2.105-6.59a8.587,8.587,0,0,1-.328-1.764H148a7.478,7.478,0,0,1-.342,1.709l-2.133,6.645Z" transform="translate(73 -2)" fill="#fff"/>
  <g id="logo_Jogosfera-2" data-name="logo_Jogosfera">
    <path id="Контур_138" data-name="Контур 138" d="M43.173,168.089c-5.81,0-10.328,2.676-14.927,5.761q-.836-.683-1.678-1.416c-7.42-6.458-11.85-12.969-11.85-17.415a4.86,4.86,0,0,1,9.611-1.025,1.815,1.815,0,0,0,3.549,0,4.86,4.86,0,0,1,9.61,1.025c0,6.772-8.23,12.6-9.881,13.7a1.815,1.815,0,0,0,2.013,3.02c2.7-1.8,11.5-8.319,11.5-16.722A8.482,8.482,0,0,0,26.1,149.6a8.483,8.483,0,0,0-15.017,5.417c0,7.9,9.159,16.726,13.1,20.153q.456.4.934.8l-.147.1-.837.569c-.77-.671-1.5-1.323-2.2-1.949-4.116-3.689-7.367-6.6-12.116-6.6-5.507,0-9.823,3.895-9.823,8.865s4.316,8.864,9.826,8.864,10.154-2.187,14.041-4.651c1.24,1.015,2.6,2.062,4.114,3.123a1.815,1.815,0,0,0,2.08-2.975c-1.084-.757-2.087-1.512-3.025-2.256q.445-.3.886-.6l.174-.119c5.3,4,11.391,7.48,15.078,7.48,5.509,0,9.826-3.893,9.826-8.864s-4.315-8.864-9.826-8.864Zm-33.347,14.1c-3.532,0-6.2-2.251-6.2-5.234s2.664-5.234,6.2-5.234,5.88,2.258,9.694,5.675c.47.422.952.854,1.451,1.295a21.111,21.111,0,0,1-11.145,3.5Zm33.349,0c-2.052,0-6.666-2.181-11.895-5.994,3.867-2.534,7.5-4.475,11.895-4.475,3.531,0,6.2,2.25,6.2,5.234S46.706,182.188,43.174,182.188Z" transform="translate(0 -128.779)" fill="#fff"/>
    <path id="Контур_139" data-name="Контур 139" d="M151.461,17.9a8.951,8.951,0,1,0-8.951-8.951A8.962,8.962,0,0,0,151.461,17.9Zm0-14.273a5.322,5.322,0,1,1-5.322,5.322A5.328,5.328,0,0,1,151.461,3.629Z" transform="translate(-125.246)" fill="#fff"/>
  </g>
</svg>
