<svg id="logo_atesi" xmlns="http://www.w3.org/2000/svg" width="150.588" height="36.958" viewBox="0 0 150.588 36.958">
  <path id="Контур_142" data-name="Контур 142" d="M26.268,37.558h-6.5l-1.883-5.889H8.472L6.608,37.558H.146L9.783,11.086h7.07ZM16.521,27.091l-2.843-8.9a11.6,11.6,0,0,1-.443-2.381h-.148a10.1,10.1,0,0,1-.462,2.308l-2.88,8.972Zm29-11.15h-7.55V37.558H31.99V15.941H24.477V11.086H45.522ZM64.96,37.558H49.084V11.086H64.351v4.855h-9.3v5.889H63.7v4.837H55.047v6.055H64.96Zm3.027-1.015V30.635a11.351,11.351,0,0,0,3.489,2.021,11.215,11.215,0,0,0,3.8.674,8.433,8.433,0,0,0,1.966-.2,4.605,4.605,0,0,0,1.4-.563,2.456,2.456,0,0,0,.84-.849,2.119,2.119,0,0,0,.277-1.061,2.3,2.3,0,0,0-.443-1.385,4.767,4.767,0,0,0-1.209-1.126,12.635,12.635,0,0,0-1.818-1q-1.052-.48-2.271-.978A11.589,11.589,0,0,1,69.4,23.011a6.892,6.892,0,0,1-1.523-4.5,7.174,7.174,0,0,1,.831-3.554,7.055,7.055,0,0,1,2.261-2.446,10.139,10.139,0,0,1,3.314-1.412,17.026,17.026,0,0,1,3.987-.452,23.983,23.983,0,0,1,3.664.249,14.41,14.41,0,0,1,2.944.766v5.52a8.9,8.9,0,0,0-1.449-.812,11.481,11.481,0,0,0-1.615-.581,12.32,12.32,0,0,0-1.652-.342,11.693,11.693,0,0,0-1.56-.111,8.135,8.135,0,0,0-1.846.194,4.735,4.735,0,0,0-1.4.545,2.709,2.709,0,0,0-.886.84,1.991,1.991,0,0,0-.314,1.1A2.1,2.1,0,0,0,74.5,19.2a4.023,4.023,0,0,0,1,1,10.578,10.578,0,0,0,1.569.923q.923.452,2.086.932a23.243,23.243,0,0,1,2.852,1.412,10.139,10.139,0,0,1,2.169,1.689A6.58,6.58,0,0,1,85.562,27.3a7.6,7.6,0,0,1,.48,2.815,7.541,7.541,0,0,1-.84,3.72,6.819,6.819,0,0,1-2.28,2.437,9.886,9.886,0,0,1-3.351,1.338,19.363,19.363,0,0,1-4.034.406,22.428,22.428,0,0,1-4.144-.369A12.511,12.511,0,0,1,67.988,36.542Zm28.373,1.015H90.4V11.086h5.963Z" transform="translate(54.227 -1.72)" fill="#fff"/>
  <g id="Сгруппировать_53" data-name="Сгруппировать 53">
    <g id="Сгруппировать_51" data-name="Сгруппировать 51" transform="translate(0 0)">
      <path id="Контур_140" data-name="Контур 140" d="M-.215,3.387H11.876L24.768,40.336H12.677Z" transform="translate(11.43 -3.387)" fill="#fff"/>
      <circle id="Эллипс_43" data-name="Эллипс 43" cx="5.656" cy="5.656" r="5.656" transform="translate(0 25.131)" fill="#fff"/>
    </g>
    <path id="Контур_141" data-name="Контур 141" d="M2266.768,143.4l.821,36.936H2279.7Z" transform="translate(-2243.484 -143.382)" fill="#f4f4f4"/>
  </g>
</svg>
