<svg id="place-message" xmlns="http://www.w3.org/2000/svg" width="24.754" height="17.682" viewBox="0 0 24.754 17.682">
  <path id="Контур_146" data-name="Контур 146" d="M139.817,296.5l-1.452,1.453a2.948,2.948,0,0,1-4.168,0l-1.452-1.453-7.835,7.835a1.769,1.769,0,0,0,.762.173H146.89a1.769,1.769,0,0,0,.762-.173Z" transform="translate(-123.904 -286.826)" fill="#fff" fill-rule="evenodd"/>
  <path id="Контур_147" data-name="Контур 147" d="M444.325,124.91a1.769,1.769,0,0,1,.173.762v14.145a1.77,1.77,0,0,1-.173.762l-7.835-7.835Z" transform="translate(-419.744 -123.904)" fill="#fff" fill-rule="evenodd"/>
  <path id="Контур_148" data-name="Контур 148" d="M105.175,124.91l7.835,7.835-7.835,7.835a1.77,1.77,0,0,1-.173-.762V125.673a1.77,1.77,0,0,1,.173-.762Z" transform="translate(-105.002 -123.904)" fill="#fff" fill-rule="evenodd"/>
  <path id="Контур_149" data-name="Контур 149" d="M147.66,105.175A1.77,1.77,0,0,0,146.9,105H125.68a1.77,1.77,0,0,0-.762.173l10.121,10.12a1.767,1.767,0,0,0,2.5,0Z" transform="translate(-123.912 -105.002)" fill="#fff" fill-rule="evenodd"/>
</svg>
